<svg width="60" height="60" viewBox="0 0 60 60" fill="none" xmlns="http://www.w3.org/2000/svg">
<circle cx="30" cy="30" r="29.5" fill="white"/>
<circle cx="30" cy="30" r="29.5" stroke="#DEDEDE"/>
<circle cx="30" cy="30" r="29.5" stroke="black" stroke-opacity="0.2"/>
<path d="M36.2716 37.0105C34.7606 36.0883 34.2185 36.1812 34.2185 34.3387C34.2185 33.6939 34.2185 32.4957 34.2185 31.3904C35.0478 30.4694 35.3494 30.5841 36.0507 26.9683C37.4688 26.9683 37.3769 25.1258 38.0458 23.4915C38.591 22.1606 38.1343 21.621 37.6751 21.4005C38.0505 16.5505 38.0505 13.2101 32.5455 12.1739C30.5501 10.4636 27.5391 11.0442 26.1122 11.3296C24.6866 11.615 23.4006 11.3296 23.4006 11.3296L23.6455 13.6276C21.5578 16.133 22.6018 19.4733 22.2657 21.4298C21.8277 21.6684 21.4326 22.2185 21.9542 23.4915C22.623 25.1258 22.5311 26.9683 23.9493 26.9683C24.6506 30.5841 24.9521 30.4694 25.7815 31.3904C25.7815 32.4957 25.7815 33.6939 25.7815 34.3387C25.7815 36.1812 25.1553 36.213 23.7285 37.0105C20.2884 38.9333 15.8057 40.0505 15.0025 46.0601C14.8554 47.1592 21.1665 48.3592 30 48.363C38.8334 48.3592 45.1442 47.1592 44.9975 46.0601C44.1943 40.0505 39.6705 39.0841 36.2716 37.0105Z" fill="#ffc700"/>
</svg>
